HIERARCHY
ROOT Hips
{
  OFFSET 0 0 0
  CHANNELS 6 Xposition Yposition Zposition Zrotation Yrotation Xrotation
  JOINT LeftThigh
  {
    OFFSET 8.409438 0 -5.917753
    CHANNELS 3 Zrotation Yrotation Xrotation
    JOINT LeftLeg
    {
      OFFSET 0 0 -42.358652
      CHANNELS 3 Zrotation Yrotation Xrotation
      JOINT LeftFoot
      {
        OFFSET 0 0 -39.357303
        CHANNELS 3 Zrotation Yrotation Xrotation
      }
    }
  }
  JOINT RightThigh
  {
    OFFSET -8.409438 0 -5.917753
    CHANNELS 3 Zrotation Yrotation Xrotation
    JOINT RightLeg
    {
      OFFSET 0 0 -42.358652
      CHANNELS 3 Zrotation Yrotation Xrotation
      JOINT RightFoot
      {
        OFFSET 0 0 -39.357303
        CHANNELS 3 Zrotation Yrotation Xrotation
      }
    }
  }
  JOINT SpineLow
  {
    OFFSET 0 0 4.719101
    CHANNELS 3 Zrotation Yrotation Xrotation
    JOINT SpineMid
    {
      OFFSET 0 0 12.899191
      CHANNELS 3 Zrotation Yrotation Xrotation
      JOINT Chest
      {
        OFFSET 0 0 12.899191
        CHANNELS 3 Zrotation Yrotation Xrotation
        JOINT LeftShoulder
        {
          OFFSET 7.550562 1.41573 9.438202
          CHANNELS 3 Zrotation Yrotation Xrotation
          JOINT LeftArm
          {
            OFFSET 9.155056 0 4.247191
            CHANNELS 3 Zrotation Yrotation Xrotation
            JOINT LeftForearm
            {
              OFFSET 0 0 25.771955
              CHANNELS 3 Zrotation Yrotation Xrotation
              JOINT LeftHand
              {
                OFFSET 0 0 25.197169
                CHANNELS 3 Zrotation Yrotation Xrotation
              }
            }
          }
        }
        JOINT RightShoulder
        {
          OFFSET -7.550562 1.41573 9.438202
          CHANNELS 3 Zrotation Yrotation Xrotation
          JOINT RightArm
          {
            OFFSET -9.155056 0 4.247191
            CHANNELS 3 Zrotation Yrotation Xrotation
            JOINT RightForearm
            {
              OFFSET 0 0 -25.771955
              CHANNELS 3 Zrotation Yrotation Xrotation
              JOINT RightHand
              {
                OFFSET 0 0 -25.197169
                CHANNELS 3 Zrotation Yrotation Xrotation
              }
            }
          }
        }
        JOINT Neck
        {
          OFFSET 0 0 15.101124
          CHANNELS 3 Zrotation Yrotation Xrotation
          JOINT Head
          {
            OFFSET 0 0 11.325843
            CHANNELS 3 Zrotation Yrotation Xrotation
            End Site
            {
              OFFSET 0 0 14.157303
            }
          }
        }
      }
    }
  }
}
MOTION
Frames: 7
Frame Time: 0.0
0.0  93.25843  0.0  11.845852  -6.319626  -117.952296  38.428659  -11.20439  -96.794392  -5.035546  23.689619  52.497679  5.161684  -8.856785  7.199187  -10.181558  5.924258  7.938186  6.152  12.659411  25.971637  8.147987  3.769909  1.598266  1.523445  0.429895  3.192992  4.212822  0.97134  8.751414  4.212822  0.97134  8.751414  -29.580849  24.919895  4.262268  -159.781182  62.691399  -104.88124  -36.768651  13.238938  82.618058  38.704293  -37.94187  12.085996  0.906094  -12.948174  21.162567  107.738787  40.911146  41.97918  -8.3291  -20.010153  -119.355759  56.795448  4.607856  -13.833594  -0.616355  3.834022  8.909718  -0.5182  2.86726  6.683669  
0.0  93.25843  0.0  11.976392  -6.941038  -118.295845  39.433285  -14.070086  -96.469404  -3.287952  22.569167  48.127492  5.466558  -9.183169  7.288751  -8.935199  5.362502  8.429687  5.669097  12.935076  25.982471  7.819034  3.841132  1.537254  1.588957  0.384053  3.222478  4.385728  0.835707  8.829623  4.385727  0.835707  8.829623  -29.402791  25.147711  4.579742  -160.474054  62.75999  -105.27382  -37.068739  12.673638  82.435029  38.469144  -37.940357  12.411463  1.07145  -12.859721  21.394123  106.995654  42.05502  41.348929  -7.529771  -21.030239  -119.545935  56.169986  4.878827  -13.713493  -0.652503  3.829113  8.925464  -0.545335  2.863036  6.695704  
0.0  93.25843  0.0  12.087684  -7.19669  -118.339698  40.271652  -17.1556  -96.361331  0.15501  21.04027  46.022916  5.168102  -9.275904  6.924052  -7.989888  4.849004  8.590788  5.524785  13.10062  26.220878  7.652199  3.860994  1.537637  1.611953  0.37629  3.229495  4.447485  0.810995  8.848491  4.447485  0.810995  8.848491  -29.374363  25.206172  4.656786  -161.384324  62.860741  -106.083187  -37.154709  12.248235  82.419542  38.350291  -37.984994  12.662866  1.217212  -12.930913  21.474656  106.396622  43.03729  40.721898  -6.978684  -22.083567  -119.682333  55.749109  5.07373  -13.600335  -0.660395  3.767772  8.950648  -0.550516  2.81688  6.714649  
0.0  93.25843  0.0  12.251734  -7.475259  -118.337615  41.263702  -19.695815  -96.522649  3.859738  19.717389  45.933355  4.377645  -9.246951  6.465426  -7.25784  4.455069  8.610749  5.642133  13.2048  26.482548  7.566679  3.891893  1.635003  1.642285  0.407592  3.258763  4.534771  0.89025  8.930963  4.534771  0.89025  8.930964  -29.49516  24.980585  4.458704  -162.290045  62.94609  -107.013611  -37.20829  11.868754  82.337097  38.238066  -37.989844  12.938052  1.560013  -13.303581  21.413215  105.727425  44.138931  40.166722  -6.762683  -23.031509  -119.64933  55.500896  5.125671  -13.593867  -0.745998  3.588693  8.850186  -0.611502  2.681391  6.639863  
0.0  93.25843  0.0  12.360957  -7.617255  -118.315552  41.785465  -20.522712  -96.456414  5.912059  19.040053  46.906741  3.732529  -9.291532  6.254952  -7.136231  4.265026  8.475553  6.045819  13.070092  26.832815  7.432391  4.057053  1.719517  1.637796  0.419744  3.287275  4.524509  0.92202  9.009673  4.524509  0.92202  9.009673  -29.513567  24.932871  4.225044  -163.103451  62.971834  -107.799718  -37.056671  11.584672  82.248476  38.152531  -38.009765  13.193297  1.746831  -13.492329  21.283533  105.153647  45.150286  39.554206  -6.935231  -23.75032  -119.414559  55.383949  5.109294  -13.835607  -0.753373  3.542251  8.812878  -0.616145  2.646485  6.611933  
0.0  93.25843  0.0  12.490585  -7.836433  -118.331474  42.089147  -19.763574  -96.080737  5.842699  19.297728  48.657886  3.761519  -9.204616  6.243121  -7.436166  4.343456  8.246762  6.665543  12.933465  27.169193  7.655664  4.266979  1.846746  1.648177  0.428056  3.285706  4.55395  0.943371  9.006097  4.55395  0.943371  9.006097  -29.471612  25.003558  4.242669  -163.909301  62.900592  -108.479715  -36.855825  11.265088  82.097282  38.145677  -37.977625  13.497379  1.911619  -13.772964  21.383218  104.465577  46.143857  38.924558  -7.800405  -24.143346  -118.715075  55.158974  4.920263  -14.570061  -0.774835  3.513055  8.902439  -0.632339  2.624172  6.679204  
0.0  93.25843  0.0  12.562665  -7.89878  -118.234735  42.143711  -18.187915  -95.526042  4.708044  20.432223  51.236008  4.538277  -9.04018  6.251193  -8.206276  4.643304  7.837228  7.268146  12.865498  27.445461  7.967651  4.315198  1.865324  1.638702  0.432454  3.260795  4.528408  0.958371  8.938242  4.528408  0.958371  8.938242  -29.486804  25.14798  4.350363  -164.654484  62.78301  -109.184233  -36.589198  10.919467  82.002681  38.246521  -37.924453  13.757339  1.951829  -14.031383  21.490795  103.544504  47.193271  38.16651  -8.28169  -24.586315  -118.123501  55.285461  4.674057  -15.297252  -0.796524  3.533476  9.036556  -0.649683  2.639022  6.779888  
